<svg height="192" viewBox="0 0 50.8 50.8" width="192" xmlns="http://www.w3.org/2000/svg"><path d="m19.494 7.144a19.226 19.226 0 0 0 -12.35 12.35m36.512 0a19.224 19.224 0 0 0 -12.349-12.348m-24.161 24.16a19.224 19.224 0 0 0 12.348 12.35m11.813-.002a19.222 19.222 0 0 0 12.347-12.347m-18.254-25.487c5.41 17.6 1.986 14.176 19.58 19.58-17.594 5.41-14.17 1.986-19.58 19.58-5.404-17.594-1.98-14.17-19.58-19.58 17.6-5.404 14.176-1.98 19.58-19.58z" fill="none" stroke="#000" stroke-linecap="round" stroke-linejoin="round" stroke-width="3.175"/></svg>